<?xml version="1.0" encoding="UTF-8" standalone="no"?><svg width="1054.121" height="1200" xmlns="http://www.w3.org/2000/svg" stroke-linejoin="round" stroke-linecap="round" fill-rule="evenodd" fill="none"><rect x="0" y="0" width="1054.121" height="1200" fill="#CCC5B8"/><style><![CDATA[@import url("https://fonts.googleapis.com/css?family=IM+Fell+Great+Primer");]]></style><defs/><g><path d=" M 0,0"/><g transform="translate(483.286 485.739) scale(21.613 21.613)"><path d=" M 0,0"/><g><path d=" M 0,0"/><path d=" M 3.101,-9.875 L -1.973,-21.227 L -2.731,-23.077 L -5.518,-30.552 L -6.977,-34.828 L -7.804,-37.773 L -8.347,-40.322 L -8.606,-42.473 L -8.697,-44.539 L -8.621,-46.52 L -8.377,-48.416 L -7.965,-50.227 L -7.655,-52.054 L -7.446,-53.898 L -7.339,-55.758 L -7.332,-57.635 L -7.477,-59.771 L -7.773,-62.167 L -8.369,-65.551 L -9.715,-72.109" stroke="#1A1917" stroke-width="2.049" stroke-linejoin="round" stroke-linecap="butt"/><path d=" M 3.101,-9.875 L -1.973,-21.227 L -2.731,-23.077 L -5.518,-30.552 L -6.977,-34.828 L -7.804,-37.773 L -8.347,-40.322 L -8.606,-42.473 L -8.697,-44.539 L -8.621,-46.52 L -8.377,-48.416 L -7.965,-50.227 L -7.655,-52.054 L -7.446,-53.898 L -7.339,-55.758 L -7.332,-57.635 L -7.477,-59.771 L -7.773,-62.167 L -8.369,-65.551 L -9.715,-72.109" stroke="#CCC5B8" stroke-width="2"/></g><g><path d=" M 0,0"/><path d=" M 9.932,-2.912 L 20.972,4.548 L 22.711,5.519 L 28.238,8.016 L 31.508,9.498 L 33.754,10.524 L 35.694,11.416 L 37.326,12.174 L 38.889,12.906 L 40.383,13.613 L 41.809,14.294 L 43.165,14.948 L 44.472,15.675 L 45.728,16.472 L 46.935,17.342 L 48.091,18.283 L 49.198,19.295 L 50.254,20.379 L 51.26,21.534 L 52.217,22.761 L 53.299,23.875 L 54.506,24.878 L 55.84,25.768 L 57.299,26.546 L 59.129,27.253 L 61.331,27.888 L 64.639,28.576 L 71.261,29.687" stroke="#1A1917" stroke-width="2.049" stroke-linejoin="round" stroke-linecap="butt"/><path d=" M 9.932,-2.912 L 20.972,4.548 L 22.711,5.519 L 28.238,8.016 L 31.508,9.498 L 33.754,10.524 L 35.694,11.416 L 37.326,12.174 L 38.889,12.906 L 40.383,13.613 L 41.809,14.294 L 43.165,14.948 L 44.472,15.675 L 45.728,16.472 L 46.935,17.342 L 48.091,18.283 L 49.198,19.295 L 50.254,20.379 L 51.26,21.534 L 52.217,22.761 L 53.299,23.875 L 54.506,24.878 L 55.84,25.768 L 57.299,26.546 L 59.129,27.253 L 61.331,27.888 L 64.639,28.576 L 71.261,29.687" stroke="#CCC5B8" stroke-width="2"/></g><g><path d=" M 0,0"/><path d=" M 51.274,65.266 L 45.369,62.095 L 42.334,60.567 L 40.198,59.627 L 38.307,58.922 L 36.66,58.451 L 35.039,58.097 L 33.443,57.86 L 31.873,57.741 L 30.329,57.738 L 28.821,57.773 L 27.351,57.844 L 25.916,57.952 L 24.519,58.097 L 23.158,58.279 L 21.834,58.497 L 20.547,58.753 L 19.296,59.045 L 18.057,59.256 L 16.828,59.388 L 15.611,59.439 L 14.404,59.409 L 13.209,59.3 L 12.025,59.11 L 10.851,58.839 L 9.689,58.488 L 8.525,58.142 L 7.359,57.8 L 6.192,57.463 L 5.023,57.13 L 3.851,56.801 L 2.679,56.477 L 1.504,56.158 L 0.328,55.843 L -0.862,55.612 L -2.064,55.467 L -3.279,55.406 L -4.506,55.431 L -5.747,55.54 L -7,55.734 L -8.266,56.012 L -9.545,56.376 L -10.817,56.743 L -12.081,57.115 L -13.337,57.49 L -14.587,57.87 L -15.828,58.253 L -17.062,58.64 L -18.289,59.031 L -19.508,59.426 L -20.707,59.74 L -21.886,59.974 L -23.044,60.126 L -24.182,60.197 L -25.3,60.188 L -26.397,60.098 L -27.474,59.926 L -28.531,59.674 L -29.498,59.306 L -30.375,58.821 L -31.163,58.22 L -31.861,57.504 L -32.469,56.671 L -32.987,55.721 L -33.416,54.656 L -33.755,53.474 L -34.083,52.27 L -34.4,51.042 L -34.705,49.791 L -34.999,48.517 L -35.281,47.221 L -35.553,45.901 L -35.813,44.558 L -36.062,43.192 L -36.299,41.803 L -36.525,40.391 L -36.74,38.956 L -36.944,37.498 L -37.136,36.017 L -37.317,34.513 L -37.487,32.986 L -37.645,31.436 L -37.856,29.816 L -38.119,28.125 L -38.434,26.365 L -38.801,24.535 L -39.221,22.634 L -39.693,20.664 L -40.217,18.623 L -40.793,16.513 L -41.305,14.451 L -41.752,12.439 L -42.135,10.476 L -42.452,8.562 L -42.705,6.697 L -42.893,4.881 L -43.017,3.114 L -43.075,1.396 L -43.069,-0.273 L -42.999,-1.892 L -42.863,-3.463 L -42.663,-4.984 L -42.399,-6.456 L -42.069,-7.88 L -41.675,-9.254 L -41.216,-10.579 L -40.743,-11.832 L -40.258,-13.013 L -39.758,-14.122 L -39.245,-15.159 L -38.719,-16.125 L -38.179,-17.018 L -37.626,-17.839 L -37.06,-18.589 L -36.538,-19.397 L -36.062,-20.266 L -35.632,-21.193 L -35.247,-22.181 L -34.907,-23.227 L -34.612,-24.333 L -34.363,-25.499 L -34.16,-26.724 L -34.013,-28.006 L -33.923,-29.347 L -33.891,-30.745 L -33.915,-32.201 L -33.996,-33.715 L -34.134,-35.286 L -34.33,-36.916 L -34.582,-38.603 L -34.846,-40.288 L -35.121,-41.972 L -35.408,-43.654 L -35.707,-45.334 L -36.017,-47.013 L -36.339,-48.69 L -36.672,-50.365 L -37.017,-52.039 L -37.374,-53.711 L -37.742,-55.382 L -38.122,-57.05 L -38.514,-58.718 L -38.971,-60.59 L -39.496,-62.669 L -40.25,-65.577 L -41.728,-71.181" stroke="#1A1917" stroke-width="5.62" stroke-linejoin="round" stroke-linecap="butt"/><path d=" M 51.274,65.266 L 45.369,62.095 L 42.334,60.567 L 40.198,59.627 L 38.307,58.922 L 36.66,58.451 L 35.039,58.097 L 33.443,57.86 L 31.873,57.741 L 30.329,57.738 L 28.821,57.773 L 27.351,57.844 L 25.916,57.952 L 24.519,58.097 L 23.158,58.279 L 21.834,58.497 L 20.547,58.753 L 19.296,59.045 L 18.057,59.256 L 16.828,59.388 L 15.611,59.439 L 14.404,59.409 L 13.209,59.3 L 12.025,59.11 L 10.851,58.839 L 9.689,58.488 L 8.525,58.142 L 7.359,57.8 L 6.192,57.463 L 5.023,57.13 L 3.851,56.801 L 2.679,56.477 L 1.504,56.158 L 0.328,55.843 L -0.862,55.612 L -2.064,55.467 L -3.279,55.406 L -4.506,55.431 L -5.747,55.54 L -7,55.734 L -8.266,56.012 L -9.545,56.376 L -10.817,56.743 L -12.081,57.115 L -13.337,57.49 L -14.587,57.87 L -15.828,58.253 L -17.062,58.64 L -18.289,59.031 L -19.508,59.426 L -20.707,59.74 L -21.886,59.974 L -23.044,60.126 L -24.182,60.197 L -25.3,60.188 L -26.397,60.098 L -27.474,59.926 L -28.531,59.674 L -29.498,59.306 L -30.375,58.821 L -31.163,58.22 L -31.861,57.504 L -32.469,56.671 L -32.987,55.721 L -33.416,54.656 L -33.755,53.474 L -34.083,52.27 L -34.4,51.042 L -34.705,49.791 L -34.999,48.517 L -35.281,47.221 L -35.553,45.901 L -35.813,44.558 L -36.062,43.192 L -36.299,41.803 L -36.525,40.391 L -36.74,38.956 L -36.944,37.498 L -37.136,36.017 L -37.317,34.513 L -37.487,32.986 L -37.645,31.436 L -37.856,29.816 L -38.119,28.125 L -38.434,26.365 L -38.801,24.535 L -39.221,22.634 L -39.693,20.664 L -40.217,18.623 L -40.793,16.513 L -41.305,14.451 L -41.752,12.439 L -42.135,10.476 L -42.452,8.562 L -42.705,6.697 L -42.893,4.881 L -43.017,3.114 L -43.075,1.396 L -43.069,-0.273 L -42.999,-1.892 L -42.863,-3.463 L -42.663,-4.984 L -42.399,-6.456 L -42.069,-7.88 L -41.675,-9.254 L -41.216,-10.579 L -40.743,-11.832 L -40.258,-13.013 L -39.758,-14.122 L -39.245,-15.159 L -38.719,-16.125 L -38.179,-17.018 L -37.626,-17.839 L -37.06,-18.589 L -36.538,-19.397 L -36.062,-20.266 L -35.632,-21.193 L -35.247,-22.181 L -34.907,-23.227 L -34.612,-24.333 L -34.363,-25.499 L -34.16,-26.724 L -34.013,-28.006 L -33.923,-29.347 L -33.891,-30.745 L -33.915,-32.201 L -33.996,-33.715 L -34.134,-35.286 L -34.33,-36.916 L -34.582,-38.603 L -34.846,-40.288 L -35.121,-41.972 L -35.408,-43.654 L -35.707,-45.334 L -36.017,-47.013 L -36.339,-48.69 L -36.672,-50.365 L -37.017,-52.039 L -37.374,-53.711 L -37.742,-55.382 L -38.122,-57.05 L -38.514,-58.718 L -38.971,-60.59 L -39.496,-62.669 L -40.25,-65.577 L -41.728,-71.181" stroke="#CCC5B8" stroke-width="5.571"/></g><g><path d=" M 0,0"/><path d=" M 1.653,1.238 L 3.178,2.5 L 1.946,3.988 L 0.421,2.726 L 1.653,1.238" fill="#1A1917"/></g><g><path d=" M 0,0"/><path d=" M 4.553,9.729 L 2.731,8.219 L 5.145,5.303 L 6.968,6.812 L 4.553,9.729" fill="#9B8E8B" stroke="#403B39" stroke-width="0.025" stroke-linejoin="miter" stroke-linecap="round"/><path d=" M 10.095,8.805 L 9.27,13.09 L 2.562,11.799 L 2.852,10.293 L 8.347,8.469 L 10.095,8.805" fill="#948986" stroke="#403B39" stroke-width="0.025" stroke-linejoin="miter" stroke-linecap="round"/><path d=" M 8.543,8.116 L 4.72,4.951 L 7.42,1.69 L 11.243,4.856 L 8.543,8.116" fill="#908582" stroke="#403B39" stroke-width="0.025" stroke-linejoin="miter" stroke-linecap="round"/><path d=" M 9.874,9.955 L 11.428,9.242 L 12.936,12.53 L 11.381,13.242 L 9.874,9.955" fill="#968B88" stroke="#403B39" stroke-width="0.025" stroke-linejoin="miter" stroke-linecap="round"/><path d=" M 10.952,7.823 L 16.076,10.763 L 14.574,13.38 L 13.542,13.853 L 10.828,7.933 L 10.952,7.823" fill="#908582" stroke="#403B39" stroke-width="0.025" stroke-linejoin="miter" stroke-linecap="round"/><path d=" M 12.278,6.448 L 15.907,5.606 L 16.479,8.071 L 12.85,8.912 L 12.278,6.448" fill="#988C89" stroke="#403B39" stroke-width="0.025" stroke-linejoin="miter" stroke-linecap="round"/><path d=" M 16.933,5.369 L 12.584,6.377 L 12.386,5.525 L 11.233,4.746 L 11.124,3.589 L 13.206,0.507 L 16.289,2.591 L 16.933,5.369" fill="#8C817E" stroke="#403B39" stroke-width="0.025" stroke-linejoin="miter" stroke-linecap="round"/><path d=" M 10.056,-1.037 L 12.936,0.908 L 11.124,3.589 L 8.218,1.183 L 10.056,-1.037" fill="#958986" stroke="#403B39" stroke-width="0.025" stroke-linejoin="miter" stroke-linecap="round"/></g><g><path d=" M 0,0"/><path d=" M -12.369,-0.326 L -11.285,-1.389 L -9.715,0.211 L -10.799,1.274 L -12.369,-0.326" fill="#9B9D8E" stroke="#3F3F39" stroke-width="0.025" stroke-linejoin="miter" stroke-linecap="round"/><path d=" M -11.313,-1.418 L -11.36,-3.201 L -8.528,-3.276 L -8.481,-1.493 L -11.313,-1.418" fill="#959788" stroke="#3F3F39" stroke-width="0.025" stroke-linejoin="miter" stroke-linecap="round"/><path d=" M -15.506,-0.528 L -16.164,-2.297 L -12.526,-3.651 L -11.868,-1.882 L -15.506,-0.528" fill="#A3A595" stroke="#3F3F39" stroke-width="0.025" stroke-linejoin="miter" stroke-linecap="round"/><path d=" M -8.232,-4.852 L -8.191,-3.284 L -11.328,-3.201 L -11.369,-4.769 L -8.232,-4.852" fill="#959788" stroke="#3F3F39" stroke-width="0.025" stroke-linejoin="miter" stroke-linecap="round"/><path d=" M -13.538,-5.203 L -12.907,-3.509 L -16.564,-2.149 L -17.194,-3.843 L -13.538,-5.203" fill="#9A9C8D" stroke="#3F3F39" stroke-width="0.025" stroke-linejoin="miter" stroke-linecap="round"/><path d=" M -11.42,-4.717 L -12.939,-4.951 L -12.447,-8.15 L -10.928,-7.917 L -11.42,-4.717" fill="#8B8D7F" stroke="#3F3F39" stroke-width="0.025" stroke-linejoin="miter" stroke-linecap="round"/><path d=" M -13.745,-8.762 L -12.385,-8.553 L -12.857,-5.481 L -14.217,-5.69 L -13.745,-8.762" fill="#97998A" stroke="#3F3F39" stroke-width="0.025" stroke-linejoin="miter" stroke-linecap="round"/><path d=" M -17.093,-1.952 L -17.655,-0.205 L -20.032,-0.971 L -20.109,-1.202 L -18.779,-3.059 L -17.093,-1.952" fill="#999B8C" stroke="#3F3F39" stroke-width="0.025" stroke-linejoin="miter" stroke-linecap="round"/><path d=" M -3.697,-13.708 L -0.372,-15.194 L 0.94,-12.258 L -2.385,-10.772 L -3.697,-13.708" fill="#999B8C" stroke="#3F3F39" stroke-width="0.025" stroke-linejoin="miter" stroke-linecap="round"/><path d=" M -3.921,-13.449 L -6.222,-16.354 L -4.501,-17.717 L -2.816,-17.304 L -3.697,-13.708 L -3.921,-13.449" fill="#9B9D8E" stroke="#3F3F39" stroke-width="0.025" stroke-linejoin="miter" stroke-linecap="round"/><path d=" M -8.139,-13.735 L -5.686,-15.678 L -3.921,-13.449 L -6.373,-11.506 L -8.139,-13.735" fill="#9C9E8E" stroke="#3F3F39" stroke-width="0.025" stroke-linejoin="miter" stroke-linecap="round"/><path d=" M -3.697,-13.708 L -2.816,-17.304 L -1.131,-16.891 L -0.372,-15.194 L -3.697,-13.708" fill="#989A8B" stroke="#3F3F39" stroke-width="0.025" stroke-linejoin="miter" stroke-linecap="round"/><path d=" M 0.148,-11.353 L 1.239,-10.242 L -0.033,-8.994 L -1.123,-10.105 L 0.148,-11.353" fill="#939586" stroke="#3F3F39" stroke-width="0.025" stroke-linejoin="miter" stroke-linecap="round"/><path d=" M -1.587,-10.578 L 0.364,-8.59 L -2.201,-6.073 L -4.152,-8.061 L -1.587,-10.578" fill="#929485" stroke="#3F3F39" stroke-width="0.025" stroke-linejoin="miter" stroke-linecap="round"/><path d=" M -4.153,-8.096 L -5.638,-6.59 L -7.407,-8.335 L -5.923,-9.84 L -4.153,-8.096" fill="#8C8E80" stroke="#3F3F39" stroke-width="0.025" stroke-linejoin="miter" stroke-linecap="round"/><path d=" M -5.946,-9.816 L -7.317,-8.426 L -9.293,-10.374 L -7.922,-11.764 L -5.946,-9.816" fill="#969889" stroke="#3F3F39" stroke-width="0.025" stroke-linejoin="miter" stroke-linecap="round"/><path d=" M -9.821,-12.934 L -8.78,-11.907 L -10.191,-10.477 L -11.232,-11.503 L -9.821,-12.934" fill="#919384" stroke="#3F3F39" stroke-width="0.025" stroke-linejoin="miter" stroke-linecap="round"/></g><g><path d=" M 0,0"/><path d=" M -9.11,5.499 L -12.611,8.36 L -12.768,8.309 L -13.039,8.13 L -14.348,5.798 L -13.275,2.466 L -10.985,3.203 L -9.11,5.499" fill="#A29692" stroke="#403B39" stroke-width="0.025" stroke-linejoin="miter" stroke-linecap="round"/><path d=" M -14.867,5.543 L -13.902,8.42 L -17.227,9.535 L -18.192,6.659 L -14.867,5.543" fill="#9B8F8B" stroke="#403B39" stroke-width="0.025" stroke-linejoin="miter" stroke-linecap="round"/><path d=" M -11.949,12.929 L -15.29,14.05 L -16.848,9.408 L -13.506,8.287 L -11.949,12.929" fill="#A69996" stroke="#403B39" stroke-width="0.025" stroke-linejoin="miter" stroke-linecap="round"/><path d=" M -12.647,8.389 L -9.779,6.046 L -6.171,10.463 L -9.038,12.806 L -12.647,8.389" fill="#9D918E" stroke="#403B39" stroke-width="0.025" stroke-linejoin="miter" stroke-linecap="round"/><path d=" M -18.711,3.651 L -17.855,0.991 L -13.275,2.466 L -14.348,5.798 L -18.711,3.651" fill="#9B8E8B" stroke="#403B39" stroke-width="0.025" stroke-linejoin="miter" stroke-linecap="round"/><path d=" M -15.979,14.281 L -12.327,13.056 L -11.232,15.689 L -11.936,19.362 L -13.741,20.112 L -15.2,16.603 L -15.979,14.281" fill="#8B807D" stroke="#403B39" stroke-width="0.025" stroke-linejoin="miter" stroke-linecap="round"/><path d=" M -8.303,12.496 L -5.72,10.386 L -4.252,12.183 L -6.835,14.293 L -8.303,12.496" fill="#9C908D" stroke="#403B39" stroke-width="0.025" stroke-linejoin="miter" stroke-linecap="round"/><path d=" M -7.83,13.513 L -5.683,15.195 L -9.634,20.241 L -11.782,18.558 L -7.83,13.513" fill="#988C89" stroke="#403B39" stroke-width="0.025" stroke-linejoin="miter" stroke-linecap="round"/></g><g><path d=" M 0,0"/><path d=" M 9.808,-5.421 L 11.47,-7.88 L 14.527,-5.814 L 12.866,-3.355 L 9.808,-5.421" fill="#97998A" stroke="#3F3F39" stroke-width="0.025" stroke-linejoin="miter" stroke-linecap="round"/><path d=" M 17.265,-10.991 L 18.083,-7.116 L 14.425,-6.343 L 13.606,-10.218 L 17.265,-10.991" fill="#97998A" stroke="#3F3F39" stroke-width="0.025" stroke-linejoin="miter" stroke-linecap="round"/><path d=" M 12.558,-8.947 L 8.917,-5.375 L 5.599,-8.756 L 9.24,-12.328 L 12.558,-8.947" fill="#969889" stroke="#3F3F39" stroke-width="0.025" stroke-linejoin="miter" stroke-linecap="round"/><path d=" M 12.428,-14.952 L 15.842,-15.673 L 16.85,-10.903 L 13.436,-10.182 L 12.428,-14.952" fill="#959788" stroke="#3F3F39" stroke-width="0.025" stroke-linejoin="miter" stroke-linecap="round"/><path d=" M 19.05,-3.546 L 17.647,-2.216 L 14.664,-5.359 L 16.066,-6.69 L 19.05,-3.546" fill="#959688" stroke="#3F3F39" stroke-width="0.025" stroke-linejoin="miter" stroke-linecap="round"/><path d=" M 17.785,-2.071 L 16.529,-0.212 L 12.788,-2.739 L 14.044,-4.598 L 17.785,-2.071" fill="#919384" stroke="#3F3F39" stroke-width="0.025" stroke-linejoin="miter" stroke-linecap="round"/><path d=" M 3.105,-12.317 L 6.946,-14.033 L 8.175,-11.283 L 5.599,-8.756 L 3.941,-10.447 L 3.105,-12.317" fill="#999B8B" stroke="#3F3F39" stroke-width="0.025" stroke-linejoin="miter" stroke-linecap="round"/><path d=" M 8.444,-15.562 L 8.483,-19.892 L 12.539,-19.856 L 12.5,-15.526 L 8.444,-15.562" fill="#97998A" stroke="#3F3F39" stroke-width="0.025" stroke-linejoin="miter" stroke-linecap="round"/><path d=" M 16.757,-15.866 L 13.446,-15.167 L 12.645,-15.822 L 15.454,-19.255 L 16.163,-18.675 L 16.757,-15.866" fill="#9D9F90" stroke="#3F3F39" stroke-width="0.025" stroke-linejoin="miter" stroke-linecap="round"/><path d=" M 12.533,-15.686 L 12.571,-19.855 L 14.745,-19.836 L 15.454,-19.255 L 12.533,-15.686" fill="#959788" stroke="#3F3F39" stroke-width="0.025" stroke-linejoin="miter" stroke-linecap="round"/><path d=" M 4.222,-17.196 L 5.854,-13.545 L 3.446,-12.469 L 1.814,-16.12 L 4.222,-17.196" fill="#97998A" stroke="#3F3F39" stroke-width="0.025" stroke-linejoin="miter" stroke-linecap="round"/><path d=" M 4.891,-16.693 L 4.912,-19.06 L 8.475,-19.028 L 8.454,-16.661 L 4.891,-16.693" fill="#8D8F81" stroke="#3F3F39" stroke-width="0.025" stroke-linejoin="miter" stroke-linecap="round"/><path d=" M 2.489,-19.436 L 4.242,-19.42 L 4.222,-17.196 L 3.946,-17.18 L 1.892,-18.525 L 2.489,-19.436" fill="#9B9D8E" stroke="#3F3F39" stroke-width="0.025" stroke-linejoin="miter" stroke-linecap="round"/></g><g><path d=" M 0,0"/><path d=" M 22.3,-6.468 L 20.068,-5.996 L 19.416,-9.081 L 21.259,-9.47 L 22.3,-6.468" fill="#999B8B" stroke="#3F3F39" stroke-width="0.025" stroke-linejoin="miter" stroke-linecap="round"/><path d=" M 22.053,-11.332 L 23.952,-11.143 L 23.705,-8.773 L 23.08,-6 L 22.811,-6.06 L 22.3,-6.468 L 21.259,-9.47 L 22.053,-11.332" fill="#959788" stroke="#3F3F39" stroke-width="0.025" stroke-linejoin="miter" stroke-linecap="round"/><path d=" M 21.569,-10.196 L 19.455,-9.75 L 18.866,-12.54 L 20.979,-12.987 L 21.569,-10.196" fill="#9FA192" stroke="#3F3F39" stroke-width="0.025" stroke-linejoin="miter" stroke-linecap="round"/><path d=" M 21.771,-4.459 L 20.452,-4.18 L 20.068,-5.996 L 21.388,-6.275 L 21.771,-4.459" fill="#A2A494" stroke="#3F3F39" stroke-width="0.025" stroke-linejoin="miter" stroke-linecap="round"/><path d=" M 21.199,-12.912 L 22.497,-14.721 L 24.176,-13.516 L 24.195,-13.472 L 23.952,-11.143 L 22.053,-11.332 L 21.199,-12.912" fill="#9B9D8E" stroke="#3F3F39" stroke-width="0.025" stroke-linejoin="miter" stroke-linecap="round"/><path d=" M 18.854,-12.538 L 18.053,-16.329 L 18.657,-16.457 L 20.979,-12.987 L 18.854,-12.538" fill="#9A9C8D" stroke="#3F3F39" stroke-width="0.025" stroke-linejoin="miter" stroke-linecap="round"/><path d=" M 18.657,-16.457 L 19.14,-17.13 L 22.497,-14.721 L 21.199,-12.912 L 20.979,-12.987 L 18.657,-16.457" fill="#909284" stroke="#3F3F39" stroke-width="0.025" stroke-linejoin="miter" stroke-linecap="round"/><path d=" M 22.376,-3.866 L 21.621,-1.722 L 20.979,-1.948 L 20.773,-2.922 L 22.811,-6.06 L 22.867,-6.048 L 22.376,-3.866" fill="#8F9183" stroke="#3F3F39" stroke-width="0.025" stroke-linejoin="miter" stroke-linecap="round"/></g><g><path d=" M 0,0"/><path d=" M 9.929,21.112 L 8.702,23.849 L 4.949,22.165 L 6.176,19.429 L 9.929,21.112" fill="#958986" stroke="#403B39" stroke-width="0.025" stroke-linejoin="miter" stroke-linecap="round"/><path d=" M 5.176,16.896 L 5.688,14.235 L 10.387,15.14 L 9.875,17.801 L 5.176,16.896" fill="#958986" stroke="#403B39" stroke-width="0.025" stroke-linejoin="miter" stroke-linecap="round"/><path d=" M 1.255,13.926 L 5.587,14.76 L 4.551,20.144 L 0.219,19.311 L 1.255,13.926" fill="#8E8380" stroke="#403B39" stroke-width="0.025" stroke-linejoin="miter" stroke-linecap="round"/><path d=" M 3.327,25.451 L 4.826,22.11 L 8.617,23.81 L 7.118,27.152 L 3.327,25.451" fill="#988C89" stroke="#403B39" stroke-width="0.025" stroke-linejoin="miter" stroke-linecap="round"/><path d=" M 11.765,18.164 L 9.875,17.801 L 10.309,15.545 L 12.199,15.909 L 11.765,18.164" fill="#897E7B" stroke="#403B39" stroke-width="0.025" stroke-linejoin="miter" stroke-linecap="round"/><path d=" M -0.465,29.657 L 1.344,25.059 L 1.621,25.054 L 2.781,24.483 L 5.278,28.913 L 2.025,30.514 L 1.487,30.524 L -0.465,29.657" fill="#958986" stroke="#403B39" stroke-width="0.025" stroke-linejoin="miter" stroke-linecap="round"/><path d=" M -4.488,27.869 L -2.473,23.335 L 1.353,25.035 L -0.465,29.657 L -4.488,27.869" fill="#8F8380" stroke="#403B39" stroke-width="0.025" stroke-linejoin="miter" stroke-linecap="round"/><path d=" M 0.349,19.65 L -1.722,22.293 L -6.054,18.899 L -3.984,16.256 L 0.349,19.65" fill="#988C89" stroke="#403B39" stroke-width="0.025" stroke-linejoin="miter" stroke-linecap="round"/><path d=" M -0.232,18.133 L -4.091,15.11 L -2.215,12.714 L 0.703,13.276 L -0.232,18.133" fill="#918683" stroke="#403B39" stroke-width="0.025" stroke-linejoin="miter" stroke-linecap="round"/><path d=" M -4.258,20.306 L -3.857,22.761 L -7.277,23.321 L -7.679,20.866 L -4.258,20.306" fill="#A99C99" stroke="#403B39" stroke-width="0.025" stroke-linejoin="miter" stroke-linecap="round"/><path d=" M -3.289,25.171 L -4.488,27.869 L -8.604,26.04 L -7.405,23.342 L -3.289,25.171" fill="#938784" stroke="#403B39" stroke-width="0.025" stroke-linejoin="miter" stroke-linecap="round"/><path d=" M -9.383,22.541 L -7.533,23.363 L -8.536,25.619 L -10.385,24.797 L -9.383,22.541" fill="#A09490" stroke="#403B39" stroke-width="0.025" stroke-linejoin="miter" stroke-linecap="round"/></g><g><path d=" M 0,0"/><path d=" M 29.651,15.462 L 28.69,13.926 M 28.547,16.154 L 26.545,12.957 M 27.442,16.845 L 24.401,11.989 M 26.338,17.537 L 22.795,11.88 M 25.233,18.229 L 21.799,12.745 M 24.129,18.92 L 21.064,14.026 M 23.024,19.612 L 20.328,15.307 M 21.919,20.304 L 19.599,16.598 M 20.815,20.995 L 18.909,17.952 M 19.71,21.687 L 18.258,19.368 M 18.606,22.379 L 17.616,20.799" stroke="#CCC5B8" stroke-width="0.025" stroke-linejoin="round" stroke-linecap="butt"/></g><g><path d=" M 0,0"/></g><g><path d=" M 0,0"/></g><g><path d=" M 0,0"/></g><g><path d=" M 0,0"/></g><g><path d=" M 0,0"/></g><g><path d=" M 0,0"/><path d=" M 3.101,-9.875 L 9.932,-2.912 L -2.461,12.056 L -9.932,2.912 L 3.101,-9.875" fill="#000000" fill-opacity="0"/></g><g><path d=" M 0,0"/><path d=" M 9.932,-2.912 L 21.8,5.107 L 15.797,15.57 L -2.461,12.056 L 9.932,-2.912" fill="#000000" fill-opacity="0"/></g><g><path d=" M 0,0"/><path d=" M -2.381,-22.14 L 3.101,-9.875 L -9.932,2.912 L -22.745,-1.214 L -14.809,-12.294 L -2.381,-22.14" fill="#000000" fill-opacity="0"/></g><g><path d=" M 0,0"/><path d=" M -9.932,2.912 L -2.461,12.056 L -13.539,26.2 L -19.128,12.755 L -22.745,-1.214 L -9.932,2.912" fill="#000000" fill-opacity="0"/></g><g><path d=" M 0,0"/><path d=" M 16.08,-21.974 L 21.8,5.107 L 9.932,-2.912 L 3.101,-9.875 L -2.381,-22.14 L 16.08,-21.974" fill="#000000" fill-opacity="0"/></g><g><path d=" M 0,0"/><path d=" M 26.466,-14.518 L 25.519,-5.451 L 21.8,5.107 L 16.08,-21.974 L 26.466,-14.518" fill="#000000" fill-opacity="0"/></g><g><path d=" M 0,0"/><path d=" M 15.797,15.57 L 9.718,29.124 L 1.805,33.019 L -13.539,26.2 L -2.461,12.056 L 15.797,15.57" fill="#000000" fill-opacity="0"/></g><g><path d=" M 0,0"/><path d=" M 15.797,15.57 L 21.8,5.107 L 37.061,12.002 L 9.718,29.124 L 15.797,15.57" fill="#000000" fill-opacity="0"/></g><g><path d=" M 0,0"/><path d=" M 25.519,-5.451 L 37.061,12.002 L 21.8,5.107 L 25.519,-5.451" fill="#000000" fill-opacity="0"/></g><g><path d=" M 0,0"/><path d=" M -22.745,-1.214 L -19.128,12.755 L -42.811,9.126 L -43.281,-4.616 L -39.61,-15.216 L -35.076,-21.212 L -14.809,-12.294 L -22.745,-1.214" fill="#000000" fill-opacity="0"/></g><g><path d=" M 0,0"/><path d=" M -19.128,12.755 L -13.539,26.2 L -36.932,38.411 L -38.199,26.01 L -42.811,9.126 L -19.128,12.755" fill="#000000" fill-opacity="0"/></g><g><path d=" M 0,0"/><path d=" M -9.817,-42.079 L -2.381,-22.14 L -14.809,-12.294 L -35.076,-21.212 L -33.447,-31.011 L -35.465,-44.507 L -9.817,-42.079" fill="#000000" fill-opacity="0"/></g><g><path d=" M 0,0"/><path d=" M 21.845,-48.346 L 16.08,-21.974 L -2.381,-22.14 L -9.817,-42.079 L -6.525,-56.564 L 21.845,-48.346" fill="#000000" fill-opacity="0"/></g><g><path d=" M 0,0"/><path d=" M 47.123,-18.569 L 59.811,-6.782 L 47.913,17.24 L 37.061,12.002 L 25.519,-5.451 L 26.466,-14.518 L 47.123,-18.569" fill="#000000" fill-opacity="0"/></g><g><path d=" M 0,0"/><path d=" M 47.123,-18.569 L 26.466,-14.518 L 16.08,-21.974 L 21.845,-48.346 L 50.547,-35.418 L 47.123,-18.569" fill="#000000" fill-opacity="0"/></g><g><path d=" M 0,0"/><path d=" M 47.913,17.24 L 55.564,27.055 L 37.278,57.749 L 9.718,29.124 L 37.061,12.002 L 47.913,17.24" fill="#000000" fill-opacity="0"/></g><g><path d=" M 0,0"/><path d=" M 9.718,29.124 L 37.278,57.749 L 24.924,57.73 L 14.919,60.067 L 5.621,57.26 L -3.79,54.74 L 1.805,33.019 L 9.718,29.124" fill="#000000" fill-opacity="0"/></g><g><path d=" M 0,0"/><path d=" M 1.805,33.019 L -3.79,54.74 L -14.022,57.649 L -23.775,60.809 L -32.23,58.791 L -34.942,49.338 L -36.932,38.411 L -13.539,26.2 L 1.805,33.019" fill="#000000" fill-opacity="0"/></g><g><path d=" M 0,0"/><path d=" M -33.447,-31.011 L -35.076,-21.212 L -39.61,-15.216 L -43.281,-4.616 L -65.38,-23.94 L -64.335,-34.539 L -35.465,-44.507 L -33.447,-31.011" fill="#000000" fill-opacity="0"/></g><g><path d=" M 0,0"/><path d=" M -38.199,26.01 L -36.932,38.411 L -34.942,49.338 L -49.926,53.058 L -65.296,19.512 L -42.811,9.126 L -38.199,26.01" fill="#000000" fill-opacity="0"/></g><g><path d=" M 0,0"/><path d=" M -43.281,-4.616 L -42.811,9.126 L -65.296,19.512 L -76.176,-13.916 L -65.38,-23.94 L -43.281,-4.616" fill="#000000" fill-opacity="0"/></g><g><path d=" M 0,0"/><path d=" M -6.525,-56.564 L -9.817,-42.079 L -35.465,-44.507 L -38.225,-57.897 L -41.728,-71.181 L -11.675,-75.285 L -9.715,-72.109 L -6.525,-56.564" fill="#000000" fill-opacity="0"/></g><g><path d=" M 0,0"/><path d=" M 31.781,-70.642 L 21.845,-48.346 L -6.525,-56.564 L -9.715,-72.109 L 29.464,-75.982 L 31.781,-70.642" fill="#000000" fill-opacity="0"/></g><g><path d=" M 0,0"/><path d=" M 82.048,-2.788 L 71.261,29.687 L 55.564,27.055 L 47.913,17.24 L 59.811,-6.782 L 77.636,-7.175 L 82.048,-2.788" fill="#000000" fill-opacity="0"/></g><g><path d=" M 0,0"/><path d=" M 56.682,-40.704 L 50.547,-35.418 L 21.845,-48.346 L 31.781,-70.642 L 56.17,-64.813 L 56.682,-40.704" fill="#000000" fill-opacity="0"/></g><g><path d=" M 0,0"/><path d=" M 77.636,-7.175 L 59.811,-6.782 L 47.123,-18.569 L 50.547,-35.418 L 56.682,-40.704 L 81.191,-34.009 L 77.636,-7.175" fill="#000000" fill-opacity="0"/></g><g><path d=" M 0,0"/><path d=" M -14.022,57.649 L -3.79,54.74 L 5.621,57.26 L 14.919,60.067 L 11.04,80.644 L -4.7,90.354 L -21.742,83.025 L -23.775,60.809 L -14.022,57.649" fill="#000000" fill-opacity="0"/></g><g><path d=" M 0,0"/><path d=" M 55.564,27.055 L 71.261,29.687 L 76.857,35.47 L 62.928,66.474 L 51.274,65.266 L 37.278,57.749 L 55.564,27.055" fill="#000000" fill-opacity="0"/></g><g><path d=" M 0,0"/><path d=" M 24.924,57.73 L 37.278,57.749 L 51.274,65.266 L 35.72,92.034 L 11.04,80.644 L 14.919,60.067 L 24.924,57.73" fill="#000000" fill-opacity="0"/></g><g><path d=" M 0,0"/><path d=" M -65.296,19.512 L -49.926,53.058 L -77.589,72.086 L -103.581,38.295 L -103.559,38.125 L -65.296,19.512" fill="#000000" fill-opacity="0"/></g><g><path d=" M 0,0"/><path d=" M -38.225,-57.897 L -35.465,-44.507 L -64.335,-34.539 L -82.432,-63.122 L -77.212,-97.737 L -41.728,-71.181 L -38.225,-57.897" fill="#000000" fill-opacity="0"/></g><g><path d=" M 0,0"/><path d=" M -23.775,60.809 L -21.742,83.025 L -48.985,99.355 L -77.425,76.409 L -77.589,72.086 L -49.926,53.058 L -34.942,49.338 L -32.23,58.791 L -23.775,60.809" fill="#000000" fill-opacity="0"/></g><g><path d=" M 0,0"/><path d=" M -76.176,-13.916 L -65.296,19.512 L -103.559,38.125 L -115.624,8.606 L -105.929,-9.545 L -76.176,-13.916" fill="#000000" fill-opacity="0"/></g><g><path d=" M 0,0"/><path d=" M -64.335,-34.539 L -65.38,-23.94 L -76.176,-13.916 L -105.929,-9.545 L -113.803,-37.601 L -82.432,-63.122 L -64.335,-34.539" fill="#000000" fill-opacity="0"/></g><g><path d=" M 0,0"/><path d=" M -19.128,12.755 L -22.745,-1.214 L -14.809,-12.294 L -4.654,-20.339 M 0.519,-22.114 L 16.08,-21.974 L 26.466,-14.518 L 25.519,-5.451 L 22.764,2.372 M 20.357,7.623 L 15.797,15.57 L 9.718,29.124 L 1.805,33.019 L -13.539,26.2 L -19.128,12.755" stroke="#1A1917" stroke-width="1.9"/><path d=" M -6.759,-20.286 L -3.165,-21.519 M -1.381,-22.131 L 2.213,-23.364" stroke="#1A1917" stroke-width="3.8" stroke-linejoin="round" stroke-linecap="butt"/><path d=" M 23.716,0.71 L 22.132,4.164 M 21.302,5.975 L 19.719,9.429" stroke="#1A1917" stroke-width="3.8" stroke-linejoin="round" stroke-linecap="butt"/><path d=" M -17.228,12.755 Q -17.228,13.542 -17.784,14.099 Q -18.341,14.655 -19.128,14.655 L -19.128,14.655 Q -19.915,14.655 -20.471,14.099 Q -21.028,13.542 -21.028,12.755 L -21.028,12.755 Q -21.028,11.968 -20.471,11.412 Q -19.915,10.855 -19.128,10.855 L -19.128,10.855 Q -18.341,10.855 -17.784,11.412 Q -17.228,11.968 -17.228,12.755 L -17.228,12.755" fill="#1A1917"/><path d=" M -20.845,-1.214 Q -20.845,-0.427 -21.402,0.13 Q -21.958,0.686 -22.745,0.686 L -22.745,0.686 Q -23.532,0.686 -24.089,0.13 Q -24.645,-0.427 -24.645,-1.214 L -24.645,-1.214 Q -24.645,-2.001 -24.089,-2.557 Q -23.532,-3.114 -22.745,-3.114 L -22.745,-3.114 Q -21.958,-3.114 -21.402,-2.557 Q -20.845,-2.001 -20.845,-1.214 L -20.845,-1.214" fill="#1A1917"/><path d=" M -12.909,-12.294 Q -12.909,-11.507 -13.465,-10.951 Q -14.022,-10.394 -14.809,-10.394 L -14.809,-10.394 Q -15.596,-10.394 -16.152,-10.951 Q -16.709,-11.507 -16.709,-12.294 L -16.709,-12.294 Q -16.709,-13.081 -16.152,-13.638 Q -15.596,-14.194 -14.809,-14.194 L -14.809,-14.194 Q -14.022,-14.194 -13.465,-13.638 Q -12.909,-13.081 -12.909,-12.294 L -12.909,-12.294" fill="#1A1917"/><path d=" M 17.98,-21.974 Q 17.98,-21.187 17.423,-20.63 Q 16.867,-20.074 16.08,-20.074 L 16.08,-20.074 Q 15.293,-20.074 14.736,-20.63 Q 14.18,-21.187 14.18,-21.974 L 14.18,-21.974 Q 14.18,-22.761 14.736,-23.317 Q 15.293,-23.874 16.08,-23.874 L 16.08,-23.874 Q 16.867,-23.874 17.423,-23.317 Q 17.98,-22.761 17.98,-21.974 L 17.98,-21.974" fill="#1A1917"/><path d=" M 28.366,-14.518 Q 28.366,-13.731 27.809,-13.175 Q 27.253,-12.618 26.466,-12.618 L 26.466,-12.618 Q 25.679,-12.618 25.122,-13.175 Q 24.566,-13.731 24.566,-14.518 L 24.566,-14.518 Q 24.566,-15.305 25.122,-15.862 Q 25.679,-16.418 26.466,-16.418 L 26.466,-16.418 Q 27.253,-16.418 27.809,-15.862 Q 28.366,-15.305 28.366,-14.518 L 28.366,-14.518" fill="#1A1917"/><path d=" M 27.419,-5.451 Q 27.419,-4.664 26.863,-4.107 Q 26.306,-3.551 25.519,-3.551 L 25.519,-3.551 Q 24.732,-3.551 24.176,-4.107 Q 23.619,-4.664 23.619,-5.451 L 23.619,-5.451 Q 23.619,-6.238 24.176,-6.794 Q 24.732,-7.351 25.519,-7.351 L 25.519,-7.351 Q 26.306,-7.351 26.863,-6.794 Q 27.419,-6.238 27.419,-5.451 L 27.419,-5.451" fill="#1A1917"/><path d=" M 17.697,15.57 Q 17.697,16.357 17.14,16.913 Q 16.584,17.47 15.797,17.47 L 15.797,17.47 Q 15.01,17.47 14.453,16.913 Q 13.897,16.357 13.897,15.57 L 13.897,15.57 Q 13.897,14.783 14.453,14.226 Q 15.01,13.67 15.797,13.67 L 15.797,13.67 Q 16.584,13.67 17.14,14.226 Q 17.697,14.783 17.697,15.57 L 17.697,15.57" fill="#1A1917"/><path d=" M 11.618,29.124 Q 11.618,29.911 11.061,30.468 Q 10.505,31.024 9.718,31.024 L 9.718,31.024 Q 8.931,31.024 8.374,30.468 Q 7.818,29.911 7.818,29.124 L 7.818,29.124 Q 7.818,28.337 8.374,27.781 Q 8.931,27.224 9.718,27.224 L 9.718,27.224 Q 10.505,27.224 11.061,27.781 Q 11.618,28.337 11.618,29.124 L 11.618,29.124" fill="#1A1917"/><path d=" M 3.705,33.019 Q 3.705,33.806 3.149,34.362 Q 2.592,34.919 1.805,34.919 L 1.805,34.919 Q 1.018,34.919 0.462,34.362 Q -0.095,33.806 -0.095,33.019 L -0.095,33.019 Q -0.095,32.232 0.462,31.675 Q 1.018,31.119 1.805,31.119 L 1.805,31.119 Q 2.592,31.119 3.149,31.675 Q 3.705,32.232 3.705,33.019 L 3.705,33.019" fill="#1A1917"/><path d=" M -11.639,26.2 Q -11.639,26.987 -12.196,27.543 Q -12.752,28.1 -13.539,28.1 L -13.539,28.1 Q -14.326,28.1 -14.883,27.543 Q -15.439,26.987 -15.439,26.2 L -15.439,26.2 Q -15.439,25.413 -14.883,24.856 Q -14.326,24.3 -13.539,24.3 L -13.539,24.3 Q -12.752,24.3 -12.196,24.856 Q -11.639,25.413 -11.639,26.2 L -11.639,26.2" fill="#1A1917"/></g></g><g><path d=" M 0,0"/></g><g><path d=" M 0,0"/><g transform="translate(10 1190)"><path d=" M 0,0"/><path d=" M 0,-12 L 271,-12 L 271,0 L 0,0 L 0,-12" fill="#FF0000" fill-opacity="0"/><path d=" M 0,-12 L 0,0 L 270.158,0 L 270.158,-12 M 67.54,0 L 67.54,-6 M 135.079,0 L 135.079,-12 M 202.619,0 L 202.619,-6" stroke="#1A1917" stroke-width="0.533" stroke-linejoin="miter" stroke-linecap="butt"/><text dominant-baseline="text-before-edge" transform="translate(-6.311 -38.076) scale(0.1 0.1)" style="font: 210px IM Fell Great Primer, serif" fill="#1A1917">0</text><text dominant-baseline="text-before-edge" transform="translate(124.897 -38.076) scale(0.1 0.1)" style="font: 210px IM Fell Great Primer, serif" fill="#1A1917">25</text><text dominant-baseline="text-before-edge" transform="translate(258.966 -38.076) scale(0.1 0.1)" style="font: 210px IM Fell Great Primer, serif" fill="#1A1917">50</text><text dominant-baseline="text-before-edge" transform="translate(281.35 -38.076) scale(0.1 0.1)" style="font: 210px IM Fell Great Primer, serif" fill="#1A1917">m</text></g></g><g><path d=" M 0,0"/><g transform="translate(964.121 1110)"><path d=" M 0,0"/><path d=" M 80,0 Q 80,33.137 56.569,56.569 Q 33.137,80 0,80 L 0,80 Q -33.137,80 -56.569,56.569 Q -80,33.137 -80,0 L -80,0 Q -80,-33.137 -56.569,-56.569 Q -33.137,-80 0,-80 L 0,-80 Q 33.137,-80 56.569,-56.569 Q 80,-33.137 80,0 L 80,0" fill="#FF0000" fill-opacity="0"/><path d=" M 38.148,0 Q 38.148,15.801 26.974,26.974 Q 15.801,38.148 0,38.148 L 0,38.148 Q -15.801,38.148 -26.974,26.974 Q -38.148,15.801 -38.148,0 L -38.148,0 Q -38.148,-15.801 -26.974,-26.974 Q -15.801,-38.148 0,-38.148 L 0,-38.148 Q 15.801,-38.148 26.974,-26.974 Q 38.148,-15.801 38.148,0 L 38.148,0" stroke="#1A1917" stroke-width="1.067"/><path d=" M 41.403,0 Q 41.403,17.15 29.276,29.276 Q 17.15,41.403 0,41.403 L 0,41.403 Q -17.15,41.403 -29.276,29.276 Q -41.403,17.15 -41.403,0 L -41.403,0 Q -41.403,-17.15 -29.276,-29.276 Q -17.15,-41.403 0,-41.403 L 0,-41.403 Q 17.15,-41.403 29.276,-29.276 Q 41.403,-17.15 41.403,0 L 41.403,0" stroke="#1A1917" stroke-width="0.533"/><path d=" M 0,0 L 37.391,37.391 L 0,13.972 L 0,0 M 0,0 L -37.391,37.391 L -13.972,0 L 0,0 M 0,0 L -37.391,-37.391 L 0,-13.972 L 0,0 M 0,0 L 37.391,-37.391 L 13.972,0 L 0,0" fill="#1A1917"/><path d=" M 0,0 L 0,13.972 L -37.391,37.391 L 0,0 M 0,0 L -13.972,0 L -37.391,-37.391 L 0,0 M 0,0 L 0,-13.972 L 37.391,-37.391 L 0,0 M 0,0 L 13.972,0 L 37.391,37.391 L 0,0" fill="#99948A"/><path d=" M 13.972,0 L 37.391,37.391 L 0,13.972 L -37.391,37.391 L -13.972,0 L -37.391,-37.391 L 0,-13.972 L 37.391,-37.391 L 13.972,0" stroke="#1A1917" stroke-width="0.533"/><path d=" M 0,0 L 80,0 L 14.947,14.947 L 0,0 M 0,0 L 0,80 L -14.947,14.947 L 0,0 M 0,0 L -80,0 L -14.947,-14.947 L 0,0 M 0,0 L 0,-80 L 14.947,-14.947 L 0,0" fill="#1A1917"/><path d=" M 0,0 L 14.947,14.947 L 0,80 L 0,0 M 0,0 L -14.947,14.947 L -80,0 L 0,0 M 0,0 L -14.947,-14.947 L 0,-80 L 0,0 M 0,0 L 14.947,-14.947 L 80,0 L 0,0" fill="#99948A"/><path d=" M 14.947,-14.947 L 80,0 L 14.947,14.947 L 0,80 L -14.947,14.947 L -80,0 L -14.947,-14.947 L 0,-80 L 14.947,-14.947" stroke="#1A1917" stroke-width="0.533"/><g transform="translate(0 -80)"><path d=" M 0,0"/><text dominant-baseline="text-before-edge" transform="translate(-11.65 -31.412) scale(0.1 0.1)" style="font: 270px IM Fell Great Primer, serif" fill="#1A1917">N</text></g></g></g></g></svg>